<svg width="49" height="49" viewBox="0 0 49 49" fill="none" xmlns="http://www.w3.org/2000/svg">
<path d="M14.852 38.54C22.196 38.54 27.992 32.636 27.992 25.04C27.992 17.48 22.196 11.612 14.852 11.612C7.76 11.612 2.288 16.328 1.46 23.168H8.66C9.2 19.928 11.612 17.696 14.78 17.696C18.596 17.696 21.008 20.648 21.008 25.04C21.008 29.468 18.596 32.456 14.78 32.456C11.648 32.456 9.236 30.224 8.66 26.948H1.46C2.324 33.86 7.76 38.54 14.852 38.54Z" fill="white"/>
<path d="M34.148 38.54C26.804 38.54 21.008 32.636 21.008 25.04C21.008 17.48 26.804 11.612 34.148 11.612C41.24 11.612 46.712 16.328 47.54 23.168H40.34C39.8 19.928 37.388 17.696 34.22 17.696C30.404 17.696 27.992 20.648 27.992 25.04C27.992 29.468 30.404 32.456 34.22 32.456C37.352 32.456 39.764 30.224 40.34 26.948H47.54C46.676 33.86 41.24 38.54 34.148 38.54Z" fill="white"/>
</svg>
